<svg width="117" height="117" viewBox="0 0 117 117" fill="none" xmlns="http://www.w3.org/2000/svg">
<g clip-path="url(#clip0)">
<path d="M58.4993 36.21C46.2067 36.21 36.2065 46.2102 36.2065 58.5018C36.2065 70.7944 46.2067 80.7946 58.4993 80.7946C70.7909 80.7946 80.7911 70.7944 80.7911 58.5018C80.7911 46.2102 70.7909 36.21 58.4993 36.21ZM71.7344 54.3038L55.7642 70.274C55.0938 70.9443 54.2146 71.28 53.3362 71.28C52.4579 71.28 51.5795 70.9452 50.9091 70.274L44.8062 64.171C43.4654 62.8311 43.4654 60.6576 44.8062 59.3168C46.146 57.9761 48.3196 57.9761 49.6603 59.3168L53.3362 62.9927L66.8802 49.4496C68.2201 48.1088 70.3937 48.1088 71.7344 49.4496C73.0752 50.7894 73.0752 52.963 71.7344 54.3038Z" fill="white"/>
<path d="M108.199 31.7448L108.196 31.6538C108.145 30.5299 108.111 29.3409 108.09 28.0181C107.995 21.567 102.867 16.2308 96.4147 15.8702C82.9627 15.1195 72.5564 10.733 63.6648 2.06643L63.5889 1.99413C60.6887 -0.665035 56.3139 -0.665035 53.4129 1.99413L53.337 2.06643C44.4454 10.733 34.0391 15.1195 20.587 15.8711C14.136 16.2308 9.00687 21.567 8.91136 28.019C8.89172 29.3329 8.85691 30.5219 8.80603 31.6538L8.80067 31.8653C8.53913 45.5825 8.21421 62.6542 13.9253 78.1494C17.0656 86.6705 21.8216 94.0776 28.0602 100.166C35.1656 107.1 44.4722 112.605 55.7212 116.527C56.0872 116.655 56.4675 116.759 56.8549 116.836C57.4012 116.945 57.951 117 58.5009 117C59.0508 117 59.6015 116.945 60.1469 116.836C60.5343 116.759 60.9173 116.654 61.285 116.526C72.5206 112.596 81.8175 107.089 88.9166 100.156C95.1526 94.0651 99.9085 86.6563 103.051 78.1334C108.784 62.5917 108.46 45.4879 108.199 31.7448ZM58.4991 87.6596C42.4209 87.6596 29.3411 74.5798 29.3411 58.5016C29.3411 42.4234 42.4209 29.3436 58.4991 29.3436C74.5764 29.3436 87.6571 42.4234 87.6571 58.5016C87.6571 74.5798 74.5764 87.6596 58.4991 87.6596Z" fill="white"/>
</g>
<defs>
<clipPath id="clip0">
<rect width="117" height="117" fill="white"/>
</clipPath>
</defs>
</svg>
