<svg width="123" height="123" viewBox="0 0 123 123" fill="none" xmlns="http://www.w3.org/2000/svg">
<path d="M74.2252 27.5103C79.9124 31.0761 83.9003 37.1102 84.6264 44.1145C86.9458 45.1982 89.52 45.8214 92.2492 45.8214C102.213 45.8214 110.289 37.7457 110.289 27.7835C110.289 17.8198 102.213 9.74414 92.2492 9.74414C82.3807 9.74721 74.3756 17.6786 74.2252 27.5103ZM62.4072 64.4456C72.3709 64.4456 80.4466 56.3684 80.4466 46.4062C80.4466 36.444 72.3694 28.3684 62.4072 28.3684C52.445 28.3684 44.3647 36.4456 44.3647 46.4078C44.3647 56.3699 52.445 64.4456 62.4072 64.4456ZM70.0592 65.6751H54.7521C42.0162 65.6751 31.6549 76.038 31.6549 88.7739V107.493L31.7025 107.786L32.9919 108.19C45.1461 111.988 55.7054 113.254 64.3966 113.254C81.3722 113.254 91.2116 108.414 91.8179 108.106L93.0229 107.496H93.1518V88.7739C93.1564 76.038 82.7951 65.6751 70.0592 65.6751ZM99.9043 47.0525H84.7154C84.5512 53.1295 81.957 58.6018 77.854 62.5376C89.1746 65.9039 97.4575 76.4018 97.4575 88.8015V94.5701C112.455 94.0206 121.097 89.7701 121.666 89.4846L122.871 88.8737H123V70.1482C123 57.4137 112.639 47.0525 99.9043 47.0525ZM30.7538 45.8245C34.2828 45.8245 37.5662 44.7945 40.3476 43.0399C41.2318 37.2729 44.3233 32.2335 48.7395 28.8012C48.7579 28.4635 48.7902 28.1289 48.7902 27.7881C48.7902 17.8244 40.713 9.74875 30.7538 9.74875C20.7886 9.74875 12.7145 17.8244 12.7145 27.7881C12.7145 37.7473 20.7886 45.8245 30.7538 45.8245ZM46.9543 62.5376C42.8712 58.6218 40.2862 53.1787 40.0974 47.1384C39.5341 47.097 38.9769 47.0525 38.4028 47.0525H23.0972C10.3613 47.0525 0 57.4137 0 70.1482V88.8706L0.0475852 89.1592L1.33699 89.566C11.0873 92.6099 19.7893 94.0129 27.3477 94.455V88.8015C27.3507 76.4018 35.6306 65.9069 46.9543 62.5376Z" fill="white"/>
</svg>
