<svg width="113" height="113" viewBox="0 0 113 113" fill="none" xmlns="http://www.w3.org/2000/svg">
<path d="M39.9473 99.7578V106.379H30.0156C28.1858 106.379 26.7051 107.86 26.7051 109.689C26.7051 111.519 28.1858 113 30.0156 113H82.9844C84.8142 113 86.2949 111.519 86.2949 109.689C86.2949 107.86 84.8142 106.379 82.9844 106.379H73.0527V99.7578H39.9473Z" fill="white"/>
<path d="M30.0156 0C28.1873 0 26.7051 1.4818 26.7051 3.31055V73.0527H86.2949V3.31055C86.2949 1.4818 84.8127 0 82.9844 0H30.0156ZM55.53 51.9988L45.5984 61.9304C44.9517 62.5771 44.1047 62.9004 43.2578 62.9004C42.411 62.9004 41.5637 62.5771 40.9173 61.9304L34.2962 55.3093C33.0031 54.0162 33.0031 51.9211 34.2962 50.628C35.5893 49.3349 37.6844 49.3349 38.9775 50.628L43.2578 54.9085L50.8489 47.3174C52.142 46.0243 54.2371 46.0243 55.5302 47.3174C56.8233 48.6105 56.8233 50.7057 55.53 51.9988ZM55.53 32.1355L45.5984 42.0671C44.9517 42.7138 44.1047 43.0371 43.2578 43.0371C42.411 43.0371 41.5637 42.7138 40.9173 42.0671L34.2962 35.446C33.0031 34.1529 33.0031 32.0578 34.2962 30.7647C35.5893 29.4716 37.6844 29.4716 38.9775 30.7647L43.2578 35.0452L50.8489 27.4541C52.142 26.161 54.2371 26.161 55.5302 27.4541C56.8233 28.7472 56.8233 30.8424 55.53 32.1355ZM55.53 12.2722L45.5984 22.2038C44.9517 22.8505 44.1047 23.1738 43.2578 23.1738C42.411 23.1738 41.5637 22.8505 40.9173 22.2038L34.2962 15.5827C33.0031 14.2896 33.0031 12.1945 34.2962 10.9014C35.5893 9.60831 37.6844 9.60831 38.9775 10.9014L43.2578 15.1819L50.8489 7.59086C52.142 6.29776 54.2371 6.29776 55.5302 7.59086C56.8233 8.88396 56.8233 10.9791 55.53 12.2722ZM76.3633 59.5898H63.1211C61.2912 59.5898 59.8105 58.1091 59.8105 56.2793C59.8105 54.4494 61.2912 52.9688 63.1211 52.9688H76.3633C78.1931 52.9688 79.6738 54.4494 79.6738 56.2793C79.6738 58.1091 78.1931 59.5898 76.3633 59.5898ZM76.3633 39.7266H63.1211C61.2912 39.7266 59.8105 38.2459 59.8105 36.416C59.8105 34.5862 61.2912 33.1055 63.1211 33.1055H76.3633C78.1931 33.1055 79.6738 34.5862 79.6738 36.416C79.6738 38.2459 78.1931 39.7266 76.3633 39.7266ZM76.3633 19.8633H63.1211C61.2912 19.8633 59.8105 18.3826 59.8105 16.5527C59.8105 14.7229 61.2912 13.2422 63.1211 13.2422H76.3633C78.1931 13.2422 79.6738 14.7229 79.6738 16.5527C79.6738 18.3826 78.1931 19.8633 76.3633 19.8633Z" fill="white"/>
<path d="M109.689 13.2422H92.916V73.0527H113V16.5527C113 14.7229 111.519 13.2422 109.689 13.2422Z" fill="white"/>
<path d="M3.31055 93.1367H109.689C111.519 93.1367 113 91.656 113 89.8262V79.6738H0V89.8262C0 91.656 1.4807 93.1367 3.31055 93.1367Z" fill="white"/>
<path d="M20.084 13.2422H3.31055C1.4807 13.2422 0 14.7229 0 16.5527V73.0527H20.084V13.2422Z" fill="white"/>
</svg>
