<?xml version="1.0" encoding="UTF-8"?>
<!DOCTYPE svg PUBLIC "-//W3C//DTD SVG 1.1//EN" "http://www.w3.org/Graphics/SVG/1.1/DTD/svg11.dtd">
<!-- Creator: CorelDRAW 2017 -->
<svg xmlns="http://www.w3.org/2000/svg" xml:space="preserve" width="210mm" height="61.729mm" version="1.1" style="shape-rendering:geometricPrecision; text-rendering:geometricPrecision; image-rendering:optimizeQuality; fill-rule:evenodd; clip-rule:evenodd"
viewBox="0 0 21000 6172.9"
 xmlns:xlink="http://www.w3.org/1999/xlink">
 <defs>
  <style type="text/css">
   <![CDATA[
    .fil0 {fill:#FEFEFE}
   ]]>
  </style>
 </defs>
 <g id="Слой_x0020_1">
  <metadata id="CorelCorpID_0Corel-Layer"/>
  <path class="fil0" d="M3461.07 4604.22c-458.81,0 -838.37,-142.5 -1138.68,-427.51 -300.32,-285.03 -450.48,-648.6 -450.48,-1090.73 0,-428.24 149.46,-788.33 448.39,-1080.3 298.92,-291.98 673.63,-437.96 1124.09,-437.96 461.6,0 856.46,141.82 1184.57,425.45l-475.49 571.43c-219.66,-183.54 -454.64,-275.3 -704.9,-275.3 -211.34,0 -388.61,77.87 -531.8,233.58 -143.22,155.72 -214.82,347.6 -214.82,575.61 0,236.35 74.37,430.31 223.14,581.85 148.78,151.56 338.57,227.33 569.35,227.33 189.09,0 344.81,-40.33 467.16,-120.95l0 -354.56 -575.6 0 0 -592.27 1343.07 0 0 1313.87c-364.28,300.31 -786.94,450.46 -1268,450.46zm1718.48 -58.38l0 -2919.74 2348.3 0 0 688.22 -1547.45 0 0 442.13 1401.45 0 0 638.17 -1401.45 0 0 462.99 1568.29 0 0 688.23 -2369.14 0zm3624.63 0l0 -1092.81 -1109.51 -1826.93 921.81 0 600.64 1063.62 604.79 -1063.62 905.12 0 -1109.51 1814.41 0 1105.33 -813.34 0zm2039.64 0l0 -588.11 1464.04 -1647.57 -1413.98 0 0 -684.06 2531.82 0 0 588.14 -1464.04 1647.54 1464.04 0 0 684.06 -2581.88 0zm3003.15 0l0 -2919.74 2348.3 0 0 688.22 -1547.45 0 0 442.13 1401.45 0 0 638.17 -1401.45 0 0 462.99 1568.29 0 0 688.23 -2369.14 0zm2782.08 0l0 -2919.74 1380.61 0c425.45,0 742.44,104.28 950.99,312.83 172.4,172.4 258.61,403.21 258.61,692.41 0,428.22 -200.21,727.13 -600.63,896.77l696.57 1017.73 -934.31 0 -588.13 -884.26 -354.54 0 0 884.26 -809.17 0zm809.17 -1518.27l533.89 0c136.26,0 242.62,-31.27 319.1,-93.84 76.46,-62.57 114.71,-149.46 114.71,-260.69 0,-114.02 -38.25,-200.22 -114.71,-258.6 -76.48,-58.41 -184.23,-87.6 -323.26,-87.6l-529.73 0 0 700.73zm-17438.22 -3027.57l21000 0 0 6172.89 -21000 0 0 -6172.89z"/>
 </g>
</svg>
